<?xml version="1.0" standalone="no"?>
<svg xmlns:xlink="http://www.w3.org/1999/xlink" id="wave" style="transform:rotate(180deg); transition: 0.3s" viewBox="0 0 1440 180" version="1.1" xmlns="http://www.w3.org/2000/svg"><defs><linearGradient id="sw-gradient-0" x1="0" x2="0" y1="1" y2="0"><stop stop-color="rgba(60, 134, 246, 1)" offset="0%"/><stop stop-color="rgba(0, 68.786, 172.893, 1)" offset="100%"/></linearGradient></defs><path style="transform:translate(0, 0px); opacity:1" fill="url(#sw-gradient-0)" d="M0,108L20,117C40,126,80,144,120,144C160,144,200,126,240,111C280,96,320,84,360,75C400,66,440,60,480,63C520,66,560,78,600,87C640,96,680,102,720,96C760,90,800,72,840,54C880,36,920,18,960,24C1000,30,1040,60,1080,78C1120,96,1160,102,1200,90C1240,78,1280,48,1320,33C1360,18,1400,18,1440,15C1480,12,1520,6,1560,21C1600,36,1640,72,1680,96C1720,120,1760,132,1800,117C1840,102,1880,60,1920,54C1960,48,2000,78,2040,99C2080,120,2120,132,2160,120C2200,108,2240,72,2280,48C2320,24,2360,12,2400,30C2440,48,2480,96,2520,102C2560,108,2600,72,2640,51C2680,30,2720,24,2760,36C2800,48,2840,78,2860,93L2880,108L2880,180L2860,180C2840,180,2800,180,2760,180C2720,180,2680,180,2640,180C2600,180,2560,180,2520,180C2480,180,2440,180,2400,180C2360,180,2320,180,2280,180C2240,180,2200,180,2160,180C2120,180,2080,180,2040,180C2000,180,1960,180,1920,180C1880,180,1840,180,1800,180C1760,180,1720,180,1680,180C1640,180,1600,180,1560,180C1520,180,1480,180,1440,180C1400,180,1360,180,1320,180C1280,180,1240,180,1200,180C1160,180,1120,180,1080,180C1040,180,1000,180,960,180C920,180,880,180,840,180C800,180,760,180,720,180C680,180,640,180,600,180C560,180,520,180,480,180C440,180,400,180,360,180C320,180,280,180,240,180C200,180,160,180,120,180C80,180,40,180,20,180L0,180Z"/><defs><linearGradient id="sw-gradient-1" x1="0" x2="0" y1="1" y2="0"><stop stop-color="rgba(60, 134, 246, 1)" offset="0%"/><stop stop-color="rgba(0, 75.126, 188.831, 1)" offset="100%"/></linearGradient></defs><path style="transform:translate(0, 50px); opacity:0.9" fill="url(#sw-gradient-1)" d="M0,18L20,21C40,24,80,30,120,27C160,24,200,12,240,12C280,12,320,24,360,33C400,42,440,48,480,48C520,48,560,42,600,45C640,48,680,60,720,78C760,96,800,120,840,111C880,102,920,60,960,51C1000,42,1040,66,1080,75C1120,84,1160,78,1200,72C1240,66,1280,60,1320,48C1360,36,1400,18,1440,24C1480,30,1520,60,1560,60C1600,60,1640,30,1680,15C1720,0,1760,0,1800,9C1840,18,1880,36,1920,54C1960,72,2000,90,2040,99C2080,108,2120,108,2160,108C2200,108,2240,108,2280,114C2320,120,2360,132,2400,135C2440,138,2480,132,2520,111C2560,90,2600,54,2640,60C2680,66,2720,114,2760,126C2800,138,2840,114,2860,102L2880,90L2880,180L2860,180C2840,180,2800,180,2760,180C2720,180,2680,180,2640,180C2600,180,2560,180,2520,180C2480,180,2440,180,2400,180C2360,180,2320,180,2280,180C2240,180,2200,180,2160,180C2120,180,2080,180,2040,180C2000,180,1960,180,1920,180C1880,180,1840,180,1800,180C1760,180,1720,180,1680,180C1640,180,1600,180,1560,180C1520,180,1480,180,1440,180C1400,180,1360,180,1320,180C1280,180,1240,180,1200,180C1160,180,1120,180,1080,180C1040,180,1000,180,960,180C920,180,880,180,840,180C800,180,760,180,720,180C680,180,640,180,600,180C560,180,520,180,480,180C440,180,400,180,360,180C320,180,280,180,240,180C200,180,160,180,120,180C80,180,40,180,20,180L0,180Z"/><defs><linearGradient id="sw-gradient-2" x1="0" x2="0" y1="1" y2="0"><stop stop-color="rgba(60, 134, 246, 1)" offset="0%"/><stop stop-color="rgba(83.008, 151.435, 255, 1)" offset="100%"/></linearGradient></defs><path style="transform:translate(0, 100px); opacity:0.8" fill="url(#sw-gradient-2)" d="M0,18L20,36C40,54,80,90,120,111C160,132,200,138,240,135C280,132,320,120,360,123C400,126,440,144,480,126C520,108,560,54,600,42C640,30,680,60,720,63C760,66,800,42,840,42C880,42,920,66,960,63C1000,60,1040,30,1080,21C1120,12,1160,24,1200,39C1240,54,1280,72,1320,81C1360,90,1400,90,1440,81C1480,72,1520,54,1560,66C1600,78,1640,120,1680,138C1720,156,1760,150,1800,135C1840,120,1880,96,1920,78C1960,60,2000,48,2040,51C2080,54,2120,72,2160,87C2200,102,2240,114,2280,126C2320,138,2360,150,2400,132C2440,114,2480,66,2520,51C2560,36,2600,54,2640,75C2680,96,2720,120,2760,111C2800,102,2840,60,2860,39L2880,18L2880,180L2860,180C2840,180,2800,180,2760,180C2720,180,2680,180,2640,180C2600,180,2560,180,2520,180C2480,180,2440,180,2400,180C2360,180,2320,180,2280,180C2240,180,2200,180,2160,180C2120,180,2080,180,2040,180C2000,180,1960,180,1920,180C1880,180,1840,180,1800,180C1760,180,1720,180,1680,180C1640,180,1600,180,1560,180C1520,180,1480,180,1440,180C1400,180,1360,180,1320,180C1280,180,1240,180,1200,180C1160,180,1120,180,1080,180C1040,180,1000,180,960,180C920,180,880,180,840,180C800,180,760,180,720,180C680,180,640,180,600,180C560,180,520,180,480,180C440,180,400,180,360,180C320,180,280,180,240,180C200,180,160,180,120,180C80,180,40,180,20,180L0,180Z"/></svg>